<?xml version="1.0" standalone="no"?>
<!DOCTYPE svg PUBLIC "-//W3C//DTD SVG 20010904//EN"
 "http://www.w3.org/TR/2001/REC-SVG-20010904/DTD/svg10.dtd">
<svg version="1.0" xmlns="http://www.w3.org/2000/svg"
 width="126.000000pt" height="126.000000pt" viewBox="0 0 126.000000 126.000000"
 preserveAspectRatio="xMidYMid meet">

<g transform="translate(0.000000,126.000000) scale(0.100000,-0.100000)"
fill="#000000" stroke="none">
<path d="M124 1249 c-41 -12 -102 -74 -114 -118 -6 -22 -10 -229 -10 -517 l0
-481 23 -43 c16 -30 37 -51 67 -67 l43 -23 497 0 497 0 43 23 c30 16 51 37 67
67 l23 43 0 497 0 497 -23 43 c-16 30 -37 51 -67 67 l-43 23 -486 -1 c-267 0
-500 -5 -517 -10z m638 -313 c63 -19 110 -57 141 -115 15 -27 27 -53 27 -58 0
-5 -28 -15 -62 -21 -35 -7 -73 -15 -85 -18 -16 -5 -24 0 -35 23 -7 15 -31 37
-52 47 -36 17 -43 18 -80 5 -65 -23 -86 -64 -86 -168 0 -107 18 -149 72 -169
31 -12 43 -12 80 -1 36 12 47 22 67 62 26 54 28 54 135 17 58 -20 59 -26 22
-100 -25 -51 -89 -104 -144 -120 -54 -15 -181 -12 -238 5 -67 19 -127 73 -161
143 -25 51 -28 67 -28 162 0 89 4 113 24 158 29 65 98 127 160 146 60 19 185
20 243 2z"/>
</g>
</svg>
